<svg width="15" height="20" viewBox="0 0 15 20" fill="none" xmlns="http://www.w3.org/2000/svg">
<path d="M7.36842 12.6316C9.11579 12.6316 10.5158 11.2211 10.5158 9.47368L10.5263 3.15789C10.5263 1.41053 9.11579 0 7.36842 0C5.62105 0 4.21053 1.41053 4.21053 3.15789V9.47368C4.21053 11.2211 5.62105 12.6316 7.36842 12.6316ZM12.9474 9.47368C12.9474 12.6316 10.2737 14.8421 7.36842 14.8421C4.46316 14.8421 1.78947 12.6316 1.78947 9.47368H0C0 13.0632 2.86316 16.0316 6.31579 16.5474V20H8.42105V16.5474C11.8737 16.0421 14.7368 13.0737 14.7368 9.47368H12.9474Z" fill="#8E8E8E"/>
</svg>
