<svg width="40" height="51" viewBox="0 0 40 51" fill="none" xmlns="http://www.w3.org/2000/svg">
<path fill-rule="evenodd" clip-rule="evenodd" d="M32.2021 8.23162C30.4943 5.71874 28.5426 3.37664 26.3469 1.27851C25.493 0.449016 24.0536 1.22972 24.2975 2.40077C24.7611 4.69407 25.249 7.71929 25.249 10.4273C25.249 15.4531 21.9554 19.5274 16.9297 19.5274C13.1725 19.5274 10.0985 17.2585 8.75671 14.0137C8.51274 13.5257 8.41516 13.233 8.26878 12.6962C8.00041 11.6716 6.65858 11.3544 6.07306 12.2571C5.63391 12.9158 5.21917 13.5745 4.82882 14.282C1.92559 19.259 0.266602 25.0655 0.266602 31.2623C0.266602 42.0457 9.00068 50.7798 19.7841 50.7798C30.5675 50.7798 39.3016 42.0457 39.3016 31.2623C39.3016 22.7478 36.6667 14.8432 32.2021 8.23162ZM19.0766 43.4606C14.734 43.4606 11.2208 40.0451 11.2208 35.8C11.2208 31.8477 13.7825 29.0665 18.0764 28.1882C21.6627 27.4563 25.3466 25.9193 27.9083 23.504C28.5914 22.8697 29.7137 23.1624 29.9088 24.0651C30.47 26.5536 30.7627 29.1397 30.7627 31.7501C30.7871 38.2153 25.5418 43.4606 19.0766 43.4606Z" fill="white"/>
</svg>
