<svg width="22" height="14" viewBox="0 0 22 14" fill="none" xmlns="http://www.w3.org/2000/svg">
<path d="M13.3665 5.9901H6.96802V8.31041H10.8C10.6594 9.29478 9.63989 11.2284 6.96802 11.2284C4.68286 11.2284 2.78442 9.32994 2.78442 6.93932C2.78442 4.58385 4.68286 2.68541 6.96802 2.68541C8.30396 2.68541 9.18286 3.24791 9.67505 3.7401L11.5032 1.98228C10.3079 0.857285 8.79614 0.189316 6.96802 0.189316C3.24146 0.189316 0.218018 3.21275 0.218018 6.93932C0.218018 10.701 3.24146 13.6893 6.96802 13.6893C10.8704 13.6893 13.4719 10.9823 13.4719 7.1151C13.4719 6.65807 13.4016 6.34166 13.3665 5.9901ZM19.8704 6.20103V4.26744H17.9016V6.20103H15.9329V8.16978H17.9016V10.1385H19.8704V8.16978H21.8391V6.20103H19.8704Z" fill="white"/>
</svg>
