<svg width="31" height="27" viewBox="0 0 31 27" fill="none" xmlns="http://www.w3.org/2000/svg">
<path d="M22.2101 0.668019C19.6241 0.654199 17.1657 1.78992 15.5 3.76798C13.8446 1.7764 11.3794 0.63745 8.78982 0.668019C3.93532 0.668019 0 4.60334 0 9.45784C0 17.7769 14.519 25.8996 15.1076 26.2135C15.3451 26.3723 15.6548 26.3723 15.8924 26.2135C16.481 25.8996 31 17.8946 31 9.45784C31 4.60334 27.0646 0.668019 22.2101 0.668019ZM15.5 24.6439C13.224 23.3098 1.56962 16.2073 1.56962 9.45784C1.56962 5.47025 4.80223 2.23757 8.7899 2.23757C11.2318 2.20549 13.5171 3.4372 14.8329 5.49451C15.1001 5.86292 15.6154 5.94501 15.9838 5.67777C16.0542 5.6267 16.1161 5.56488 16.1671 5.49451C18.3494 2.15705 22.824 1.22059 26.1615 3.40288C28.2046 4.73884 29.4344 7.01666 29.4303 9.45777C29.4304 16.2857 17.7759 23.349 15.5 24.6439Z" fill="#3EDF82"/>
</svg>
