<svg width="70" height="78" viewBox="0 0 70 78" fill="none" xmlns="http://www.w3.org/2000/svg">
<g filter="url(#filter0_d)">
<path fill-rule="evenodd" clip-rule="evenodd" d="M44.9686 35.3837C44.9785 35.5284 44.9859 35.673 44.9901 35.8202C44.9908 35.8474 44.9929 35.8743 44.9949 35.9012C44.9975 35.9347 45 35.9681 45 36.002C45 36.0186 44.9987 36.0338 44.9975 36.0489C44.9963 36.0638 44.995 36.0786 44.995 36.0946C45.0008 37.7849 44.6107 39.5843 43.6734 41.2308C41.8761 44.3911 39.7285 47.3443 37.9768 49.7532C37.2844 50.7054 36.6538 51.5725 36.1311 52.3338C35.8286 52.7743 35.398 52.9967 34.9996 53C34.6012 52.9967 34.1706 52.7743 33.8689 52.3338C33.3459 51.572 32.7147 50.7043 32.0217 49.7513C30.27 47.3428 28.1226 44.3903 26.3258 41.2308C25.3893 39.5843 24.9983 37.7849 25.005 36.0946C25.0046 36.0802 25.0036 36.0668 25.0025 36.0534C25.0013 36.0369 25 36.0203 25 36.002C25 35.9698 25.0023 35.9381 25.0046 35.9064C25.0066 35.8778 25.0087 35.8492 25.0091 35.8202C25.0132 35.673 25.0215 35.5284 25.0306 35.3837C25.3513 30.117 29.6683 25.9404 34.9996 25.9404C40.3317 25.9404 44.6487 30.117 44.9686 35.3837ZM29.2538 36.002C29.2538 39.1759 31.826 41.749 34.9999 41.749C38.1739 41.749 40.7461 39.1759 40.7461 36.002C40.7461 32.8289 38.1739 30.2558 34.9999 30.2558C31.826 30.2558 29.2538 32.8289 29.2538 36.002Z" fill="white"/>
</g>
<defs>
<filter id="filter0_d" x="0" y="0.94043" width="70" height="77.0596" filterUnits="userSpaceOnUse" color-interpolation-filters="sRGB">
<feFlood flood-opacity="0" result="BackgroundImageFix"/>
<feColorMatrix in="SourceAlpha" type="matrix" values="0 0 0 0 0 0 0 0 0 0 0 0 0 0 0 0 0 0 127 0"/>
<feOffset/>
<feGaussianBlur stdDeviation="12.5"/>
<feColorMatrix type="matrix" values="0 0 0 0 0 0 0 0 0 0 0 0 0 0 0 0 0 0 0.1 0"/>
<feBlend mode="normal" in2="BackgroundImageFix" result="effect1_dropShadow"/>
<feBlend mode="normal" in="SourceGraphic" in2="effect1_dropShadow" result="shape"/>
</filter>
</defs>
</svg>
