<svg width="11" height="15" viewBox="0 0 11 15" fill="none" xmlns="http://www.w3.org/2000/svg">
<path d="M5.57812 0.941406C2.76172 0.941406 0 2.80078 0 5.83594C0 7.75 1.06641 8.84375 1.72266 8.84375C1.99609 8.84375 2.16016 8.10547 2.16016 7.88672C2.16016 7.64062 1.50391 7.09375 1.50391 6.02734C1.50391 3.83984 3.17188 2.28125 5.33203 2.28125C7.21875 2.28125 8.58594 3.34766 8.58594 5.28906C8.58594 6.73828 8.01172 9.44531 6.125 9.44531C5.44141 9.44531 4.83984 8.95312 4.83984 8.26953C4.83984 7.23047 5.57812 6.21875 5.57812 5.15234C5.57812 3.34766 3.00781 3.67578 3.00781 5.86328C3.00781 6.32812 3.0625 6.82031 3.28125 7.25781C2.89844 8.87109 2.13281 11.3047 2.13281 12.9727C2.13281 13.4922 2.1875 13.9844 2.24219 14.5039C2.32422 14.6133 2.29688 14.6133 2.43359 14.5586C3.80078 12.6719 3.77344 12.2891 4.375 9.82812C4.73047 10.457 5.57812 10.8125 6.28906 10.8125C9.1875 10.8125 10.5 7.96875 10.5 5.42578C10.5 2.71875 8.14844 0.941406 5.57812 0.941406Z" fill="white" fill-opacity="0.8"/>
</svg>
