<svg width="34" height="26" viewBox="0 0 34 26" fill="none" xmlns="http://www.w3.org/2000/svg">
<path d="M2.83335 0H31.1666C32.7293 0 34 1.27068 34 2.83336V22.6667C34 24.2293 32.7293 25.5 31.1666 25.5H2.83329C1.27068 25.5 0 24.2293 0 22.6666V2.83336C0 1.27068 1.27068 0 2.83335 0ZM31.1666 1.41664H2.83329C2.7289 1.41664 2.63693 1.4547 2.53898 1.47621C4.99196 3.72121 13.1257 11.1622 15.972 13.7267C16.1948 13.9273 16.5537 14.1666 16.9999 14.1666C17.4461 14.1666 17.8051 13.9273 18.0286 13.726C20.8747 11.1619 29.0088 3.72054 31.4614 1.47634C31.3633 1.45483 31.2711 1.41664 31.1666 1.41664ZM32.5834 22.6666V2.83336C32.5834 2.69457 32.5415 2.56866 32.5041 2.44182C30.6266 4.16015 24.9513 9.35206 21.2713 12.6985C24.9393 15.8492 30.6161 21.2313 32.5085 23.0359C32.5419 22.9154 32.5834 22.7976 32.5834 22.6666ZM2.83335 24.0834H31.1666C31.2798 24.0834 31.3804 24.0439 31.4861 24.0187C29.5306 22.1545 23.8177 16.7415 20.2141 13.6587C19.7444 14.0848 19.3153 14.4734 18.977 14.7782C18.3931 15.3053 17.7097 15.5834 17 15.5834C16.2903 15.5834 15.6069 15.3052 15.0238 14.7788C14.6853 14.4739 14.2559 14.085 13.7859 13.6587C10.1821 16.7411 4.47 22.1538 2.51394 24.0187C2.61959 24.0439 2.72007 24.0834 2.83335 24.0834ZM1.41665 22.6666C1.41665 22.7975 1.45808 22.9154 1.49142 23.0359C3.38453 21.2304 9.06067 15.8489 12.7286 12.6985C9.04852 9.35213 3.37403 4.16068 1.49593 2.44169C1.45848 2.56853 1.41665 2.6945 1.41665 2.83329V22.6666Z" fill="#3EDF82"/>
</svg>
