<svg width="14" height="15" viewBox="0 0 14 15" fill="none" xmlns="http://www.w3.org/2000/svg">
<path d="M2.1875 2.96484C3.51823 1.63411 5.1224 0.96875 7 0.96875C8.8776 0.96875 10.4727 1.63411 11.7852 2.96484C13.1159 4.27734 13.7812 5.8724 13.7812 7.75C13.7812 9.6276 13.1159 11.2318 11.7852 12.5625C10.4727 13.875 8.8776 14.5312 7 14.5312C5.1224 14.5312 3.51823 13.875 2.1875 12.5625C0.875 11.2318 0.21875 9.6276 0.21875 7.75C0.21875 5.8724 0.875 4.27734 2.1875 2.96484ZM3.11719 11.6328C4.19271 12.6901 5.48698 13.2188 7 13.2188C8.51302 13.2188 9.79818 12.6901 10.8555 11.6328C11.931 10.5573 12.4688 9.26302 12.4688 7.75C12.4688 6.23698 11.931 4.95182 10.8555 3.89453C9.79818 2.81901 8.51302 2.28125 7 2.28125C5.48698 2.28125 4.19271 2.81901 3.11719 3.89453C2.0599 4.95182 1.53125 6.23698 1.53125 7.75C1.53125 9.26302 2.0599 10.5573 3.11719 11.6328ZM8.69531 10.375L6.37109 8.67969C6.27995 8.60677 6.23438 8.51562 6.23438 8.40625V3.92188C6.23438 3.70312 6.34375 3.59375 6.5625 3.59375H7.4375C7.65625 3.59375 7.76562 3.70312 7.76562 3.92188V7.80469L9.59766 9.11719C9.76172 9.24479 9.77995 9.39974 9.65234 9.58203L9.16016 10.293C9.03255 10.4753 8.8776 10.5026 8.69531 10.375Z" fill="#3EDF82"/>
</svg>
