<svg width="17" height="15" viewBox="0 0 17 15" fill="none" xmlns="http://www.w3.org/2000/svg">
<path fill-rule="evenodd" clip-rule="evenodd" d="M14.9974 2.30369C15.7178 1.84905 16.2706 1.12816 16.53 0.269413C15.8555 0.691422 15.1101 0.996616 14.3148 1.16184C13.6802 0.446214 12.7732 0 11.7694 0C9.84358 0 8.28297 1.64699 8.28297 3.67811C8.28297 3.96647 8.31191 4.24746 8.37178 4.51582C5.47409 4.36217 2.90468 2.89934 1.18342 0.672479C0.883078 1.21762 0.711452 1.84905 0.711452 2.52259C0.711452 3.79808 1.32711 4.92414 2.26307 5.58505C1.69132 5.5661 1.15349 5.39877 0.682515 5.12515V5.1704C0.682515 6.95316 1.8839 8.44019 3.48142 8.77695C3.18806 8.86325 2.88073 8.9064 2.56143 8.9064C2.33691 8.9064 2.11739 8.8843 1.90585 8.84115C2.34889 10.3019 3.63708 11.3669 5.16376 11.3953C3.96936 12.3825 2.46563 12.9697 0.832189 12.9697C0.550801 12.9697 0.272407 12.9539 0 12.9192C1.54364 13.9621 3.37665 14.5714 5.34636 14.5714C11.7624 14.5714 15.2688 8.96638 15.2688 4.10538C15.2688 3.94542 15.2668 3.78651 15.2598 3.6297C15.9413 3.11087 16.534 2.4626 17 1.72487C16.3744 2.01744 15.7018 2.21529 14.9974 2.30369Z" fill="white"/>
</svg>
