<svg width="47" height="46" viewBox="0 0 47 46" fill="none" xmlns="http://www.w3.org/2000/svg">
<path fill-rule="evenodd" clip-rule="evenodd" d="M40.6063 21.8413H37.3301V13.1048C37.3301 10.7022 35.3644 8.73651 32.9619 8.73651H24.2253V5.46032C24.2253 2.44622 21.7791 0 18.765 0C15.7509 0 13.3047 2.44622 13.3047 5.46032V8.73651H4.5682C2.16567 8.73651 0.221792 10.7022 0.221792 13.1048V21.4044H3.47614C6.73049 21.4044 9.37328 24.0472 9.37328 27.3016C9.37328 30.5559 6.73049 33.1987 3.47614 33.1987H0.199951V41.4984C0.199951 43.901 2.16567 45.8667 4.5682 45.8667H12.8679V42.5905C12.8679 39.3361 15.5107 36.6933 18.765 36.6933C22.0194 36.6933 24.6622 39.3361 24.6622 42.5905V45.8667H32.9619C35.3644 45.8667 37.3301 43.901 37.3301 41.4984V32.7619H40.6063C43.6204 32.7619 46.0666 30.3157 46.0666 27.3016C46.0666 24.2875 43.6204 21.8413 40.6063 21.8413Z" fill="white"/>
</svg>
