<svg width="14" height="14" viewBox="0 0 14 14" fill="none" xmlns="http://www.w3.org/2000/svg">
<path fill-rule="evenodd" clip-rule="evenodd" d="M0.353119 4.48916H3.08183V13.9991H0.353119V4.48916ZM1.64793 3.29965H1.62818C0.640405 3.29965 0 2.57267 0 1.65207C0 0.712639 0.659337 0 1.66686 0C2.67357 0 3.29257 0.710847 3.31232 1.64938C3.31232 2.56998 2.67357 3.29965 1.64793 3.29965ZM14 14H10.9058V9.07784C10.9058 7.78971 10.4218 6.91124 9.3575 6.91124C8.54341 6.91124 8.09068 7.50376 7.87996 8.07656C7.80093 8.28094 7.81328 8.56689 7.81328 8.85374V14H4.7479C4.7479 14 4.78741 5.28158 4.7479 4.48916H7.81328V5.98167C7.99437 5.32909 8.97391 4.39773 10.5371 4.39773C12.4764 4.39773 14 5.76653 14 8.71121V14Z" fill="white"/>
</svg>
