<svg width="166" height="79" viewBox="0 0 166 79" fill="none" xmlns="http://www.w3.org/2000/svg">
<path d="M0 47.3483H4.96487V71.6927H0V47.3483Z" fill="black"/>
<path d="M7.84464 63.3517C7.84136 61.6031 8.35689 59.8928 9.32597 58.4373C10.295 56.9818 11.6741 55.8465 13.2887 55.1751C14.9032 54.5037 16.6806 54.3263 18.396 54.6655C20.1114 55.0046 21.6877 55.845 22.9252 57.0802C24.1628 58.3155 25.0062 59.8902 25.3485 61.6049C25.6909 63.3197 25.5168 65.0974 24.8484 66.7132C24.18 68.329 23.0473 69.7102 21.5936 70.682C20.14 71.6538 18.4307 72.1726 16.6821 72.1726C15.5193 72.1858 14.3655 71.9669 13.2884 71.5285C12.2112 71.0901 11.2325 70.4411 10.4094 69.6196C9.58631 68.7981 8.9355 67.8205 8.49509 66.7442C8.05469 65.6679 7.83355 64.5145 7.84464 63.3517ZM20.5216 63.3517C20.5021 62.5968 20.2604 61.8645 19.8268 61.2463C19.3932 60.6281 18.787 60.1514 18.0839 59.876C17.3808 59.6006 16.6122 59.5386 15.874 59.6977C15.1359 59.8569 14.4611 60.2302 13.934 60.7709C13.4069 61.3116 13.051 61.9957 12.9107 62.7377C12.7704 63.4796 12.8521 64.2465 13.1454 64.9423C13.4386 65.6381 13.9306 66.232 14.5597 66.6496C15.1887 67.0673 15.927 67.2902 16.6821 67.2904C17.1987 67.3049 17.7127 67.2122 18.1917 67.018C18.6707 66.8239 19.1043 66.5326 19.465 66.1625C19.8258 65.7924 20.1059 65.3515 20.2878 64.8678C20.4696 64.384 20.5492 63.8678 20.5216 63.3517Z" fill="black"/>
<path d="M45.4784 55.0107V70.8652C45.4784 76.4755 41.0927 78.8421 36.6575 78.8421C35.0978 78.9581 33.5363 78.6427 32.1439 77.9304C30.7516 77.2182 29.582 76.1366 28.7633 74.804L33.0331 72.3381C33.3719 73.021 33.908 73.5865 34.5719 73.9613C35.2358 74.336 35.997 74.5028 36.7568 74.4399C37.2568 74.5232 37.7692 74.4906 38.2546 74.3445C38.74 74.1985 39.1853 73.9429 39.5563 73.5975C39.9273 73.2521 40.214 72.8261 40.3943 72.3524C40.5746 71.8787 40.6437 71.3698 40.5963 70.8652V69.3261C40.0125 70.0442 39.2678 70.6147 38.4225 70.9914C37.5772 71.368 36.655 71.5402 35.7307 71.4941C33.4834 71.4941 31.3282 70.6013 29.7391 69.0123C28.1501 67.4232 27.2573 65.268 27.2573 63.0207C27.2573 60.7734 28.1501 58.6182 29.7391 57.0291C31.3282 55.4401 33.4834 54.5473 35.7307 54.5473C36.6545 54.5051 37.5754 54.6791 38.4201 55.0555C39.2647 55.4319 40.0099 56.0002 40.5963 56.7153V55.0604L45.4784 55.0107ZM40.5963 63.0207C40.6293 62.2158 40.4208 61.4194 39.9976 60.734C39.5745 60.0485 38.956 59.5053 38.2216 59.1741C37.4873 58.843 36.6706 58.739 35.8768 58.8756C35.0829 59.0122 34.348 59.3832 33.7666 59.9408C33.1851 60.4983 32.7838 61.2171 32.6141 62.0046C32.4444 62.792 32.5141 63.6123 32.8143 64.3598C33.1144 65.1074 33.6313 65.7481 34.2985 66.1996C34.9657 66.651 35.7526 66.8926 36.5582 66.8933C37.084 66.9305 37.6117 66.8571 38.1074 66.6779C38.6032 66.4987 39.0558 66.2176 39.4363 65.8528C39.8167 65.4879 40.1165 65.0474 40.3163 64.5596C40.5161 64.0718 40.6115 63.5476 40.5963 63.0207Z" fill="black"/>
<path d="M48.3412 63.3517C48.3379 61.6031 48.8535 59.8928 49.8225 58.4373C50.7916 56.9818 52.1707 55.8465 53.7853 55.1751C55.3998 54.5037 57.1772 54.3263 58.8926 54.6655C60.608 55.0046 62.1842 55.845 63.4218 57.0802C64.6594 58.3155 65.5028 59.8902 65.8451 61.6049C66.1874 63.3197 66.0134 65.0974 65.345 66.7132C64.6766 68.329 63.5439 69.7102 62.0902 70.682C60.6366 71.6538 58.9273 72.1726 57.1787 72.1726C56.0158 72.1858 54.8621 71.9669 53.7849 71.5285C52.7078 71.0901 51.729 70.4411 50.906 69.6196C50.0829 68.7981 49.4321 67.8205 48.9917 66.7442C48.5513 65.6679 48.3301 64.5145 48.3412 63.3517ZM61.0182 63.3517C60.9987 62.5968 60.757 61.8645 60.3234 61.2463C59.8898 60.6281 59.2836 60.1514 58.5805 59.876C57.8774 59.6006 57.1087 59.5386 56.3706 59.6977C55.6325 59.8569 54.9577 60.2302 54.4306 60.7709C53.9035 61.3116 53.5476 61.9957 53.4073 62.7377C53.267 63.4796 53.3486 64.2465 53.6419 64.9423C53.9352 65.6381 54.4272 66.232 55.0563 66.6496C55.6853 67.0673 56.4236 67.2902 57.1787 67.2904C57.6926 67.3003 58.2029 67.2041 58.678 67.0079C59.153 66.8117 59.5826 66.5197 59.9397 66.1501C60.2969 65.7805 60.5741 65.3412 60.7539 64.8598C60.9338 64.3783 61.0125 63.8649 60.9851 63.3517H61.0182Z" fill="black"/>
<path d="M68.3164 50.5424C68.3164 49.9466 68.4931 49.3643 68.824 48.869C69.155 48.3736 69.6254 47.9876 70.1758 47.7596C70.7262 47.5316 71.3318 47.472 71.916 47.5882C72.5003 47.7044 73.037 47.9913 73.4582 48.4125C73.8795 48.8338 74.1663 49.3705 74.2826 49.9547C74.3988 50.539 74.3391 51.1446 74.1112 51.695C73.8832 52.2454 73.4971 52.7158 73.0018 53.0468C72.5065 53.3777 71.9241 53.5544 71.3284 53.5544C70.5309 53.55 69.7673 53.2313 69.2034 52.6674C68.6395 52.1034 68.3208 51.3399 68.3164 50.5424ZM68.8294 55.0107H73.7943V71.6927H68.8294V55.0107Z" fill="black"/>
<path d="M95.4413 63.3517C95.5015 64.4544 95.343 65.5581 94.9749 66.5993C94.6068 67.6405 94.0364 68.5986 93.2966 69.4185C92.5567 70.2383 91.662 70.9038 90.6639 71.3764C89.6658 71.8491 88.5841 72.1197 87.481 72.1726C86.5549 72.2171 85.6304 72.0578 84.7725 71.7061C83.9147 71.3544 83.1445 70.8188 82.5161 70.137V78.4118H77.5513V55.0107H82.5161V56.5829C83.1445 55.9012 83.9147 55.3655 84.7725 55.0138C85.6304 54.6621 86.5549 54.5029 87.481 54.5473C88.5826 54.6003 89.6629 54.8704 90.6598 55.342C91.6568 55.8136 92.5508 56.4775 93.2904 57.2956C94.0301 58.1137 94.6009 59.0698 94.97 60.1091C95.3391 61.1484 95.4993 62.2503 95.4413 63.3517ZM90.4765 63.3517C90.4568 62.5749 90.2097 61.821 89.7659 61.1833C89.322 60.5455 88.7008 60.052 87.9792 59.7638C87.2577 59.4755 86.4674 59.4053 85.7063 59.5617C84.9452 59.7181 84.2467 60.0943 83.6973 60.6437C83.1479 61.1931 82.7717 61.8916 82.6153 62.6527C82.4589 63.4138 82.5291 64.2041 82.8173 64.9257C83.1056 65.6472 83.5991 66.2684 84.2369 66.7123C84.8746 67.1561 85.6285 67.4032 86.4053 67.4229C86.9474 67.4573 87.4905 67.3754 87.9983 67.1825C88.5061 66.9896 88.9667 66.6903 89.3492 66.3047C89.7317 65.919 90.0273 65.456 90.216 64.9466C90.4047 64.4373 90.4823 63.8935 90.4434 63.3517H90.4765Z" fill="black"/>
<path d="M110.899 66.6947C110.899 70.5342 107.589 72.1726 103.948 72.1726C102.493 72.3014 101.034 71.9919 99.7565 71.284C98.4794 70.5762 97.4434 69.5023 96.7817 68.2007L101.118 65.7348C101.294 66.3368 101.67 66.8605 102.185 67.2187C102.7 67.577 103.322 67.7483 103.948 67.7042C105.156 67.7042 105.752 67.3236 105.752 66.6616C105.752 64.8246 97.4768 65.801 97.4768 60.0418C97.4768 56.4009 100.555 54.5639 104.097 54.5639C105.404 54.5242 106.697 54.8346 107.844 55.4632C108.99 56.0917 109.948 57.0154 110.617 58.1386L106.265 60.4224C106.072 59.9853 105.757 59.6135 105.358 59.352C104.958 59.0906 104.491 58.9507 104.014 58.9495C103.153 58.9495 102.624 59.2805 102.624 59.8928C102.69 61.796 110.899 60.5217 110.899 66.6947Z" fill="black"/>
<path d="M129.169 55.0107V71.6926H124.204V70.137C123.627 70.8282 122.894 71.373 122.065 71.7267C121.237 72.0805 120.337 72.2333 119.438 72.1726C116.128 72.1726 113.199 69.7729 113.199 65.2549V55.0107H118.164V64.5267C118.12 64.9322 118.167 65.3424 118.302 65.7274C118.436 66.1124 118.655 66.4626 118.942 66.7526C119.229 67.0426 119.576 67.2651 119.96 67.4039C120.343 67.5427 120.753 67.5944 121.159 67.5552C122.98 67.5552 124.254 66.4961 124.254 64.1295V55.0107H129.169Z" fill="black"/>
<path d="M157.866 61.4651V71.6927H152.901V61.8954C152.901 60.2404 152.09 59.1481 150.502 59.1481C148.913 59.1481 147.887 60.3231 147.887 62.2925V71.6927H142.922V61.8954C142.922 60.2404 142.127 59.1481 140.522 59.1481C138.917 59.1481 137.924 60.3231 137.924 62.2925V71.6927H132.959V55.0107H137.924V56.5498C138.443 55.8701 139.123 55.3308 139.904 54.9811C140.684 54.6314 141.54 54.4823 142.392 54.5474C143.249 54.5058 144.101 54.6867 144.867 55.0724C145.632 55.4581 146.285 56.0356 146.761 56.7484C147.315 56.0031 148.049 55.4103 148.894 55.0253C149.739 54.6404 150.668 54.476 151.594 54.5474C155.367 54.5474 157.866 57.2946 157.866 61.4651Z" fill="black"/>
<path d="M162.103 54.9115C164.15 54.9115 165.81 53.2517 165.81 51.2043C165.81 49.157 164.15 47.4973 162.103 47.4973C160.056 47.4973 158.396 49.157 158.396 51.2043C158.396 53.2517 160.056 54.9115 162.103 54.9115Z" fill="black"/>
<path d="M56.1857 34.721C65.7736 34.721 73.5462 26.9484 73.5462 17.3605C73.5462 7.77255 65.7736 0 56.1857 0C46.5977 0 38.8252 7.77255 38.8252 17.3605C38.8252 26.9484 46.5977 34.721 56.1857 34.721Z" fill="#1970F0"/>
<path d="M94.9943 34.721C104.582 34.721 112.355 26.9484 112.355 17.3605C112.355 7.77255 104.582 0 94.9943 0C85.4063 0 77.6338 7.77255 77.6338 17.3605C77.6338 26.9484 85.4063 34.721 94.9943 34.721Z" fill="#3EDF82"/>
<path d="M34.7376 0H0.0332031V34.7044H34.7376V0Z" fill="#1970F0"/>
</svg>
