<svg width="14" height="13" viewBox="0 0 14 13" fill="none" xmlns="http://www.w3.org/2000/svg">
<path d="M5 8.45312L1.89844 5.35156C1.70313 5.15625 1.70313 4.84375 1.89844 4.64844L5 1.53906V0.999999C5 0.796875 4.875 0.617187 4.69531 0.539062C4.50781 0.460937 4.28906 0.5 4.14844 0.648437L0.148438 4.64844C-0.046875 4.84375 -0.046875 5.15625 0.148438 5.35156L4.14844 9.35156C4.24219 9.45312 4.36719 9.5 4.5 9.5C4.5625 9.5 4.63281 9.48437 4.69531 9.46094C4.875 9.38281 5 9.20312 5 9V8.45312ZM14 8.75C14 7.625 13.8594 5.98437 12.6797 4.77344C11.6953 3.76562 10.1563 3.19531 8 3.04687V0.999999C8 0.796875 7.875 0.617187 7.69531 0.539062C7.50781 0.460937 7.28906 0.5 7.14844 0.648437L3.14844 4.64844C2.95313 4.84375 2.95313 5.15625 3.14844 5.35156L7.14844 9.35156C7.24219 9.45312 7.36719 9.5 7.5 9.5C7.5625 9.5 7.63281 9.48437 7.69531 9.46094C7.875 9.38281 8 9.20312 8 9V7.03906C9.67969 7.17187 10.7578 7.57031 11.4219 8.3125C12.2109 9.1875 12.4766 10.5937 12.25 12.7266C12.2422 12.8438 12.3125 12.9531 12.4297 12.9922C12.4531 13 12.4766 13 12.5 13C12.5938 13 12.6797 12.9531 12.7188 12.8672C12.7734 12.7656 14 10.375 14 8.75Z" fill="#3EDF82"/>
</svg>
