<svg width="19" height="16" viewBox="0 0 19 16" fill="none" xmlns="http://www.w3.org/2000/svg">
<path d="M16.3838 4.28862C17.0869 3.76128 17.7197 3.12846 18.2119 2.39018C17.5791 2.67143 16.8408 2.88237 16.1025 2.95268C16.876 2.49565 17.4385 1.79253 17.7197 0.91362C17.0166 1.33549 16.208 1.6519 15.3994 1.82768C14.6963 1.0894 13.7471 0.667526 12.6924 0.667526C10.6533 0.667526 9.00098 2.31987 9.00098 4.35893C9.00098 4.64018 9.03613 4.92143 9.10645 5.20268C6.04785 5.0269 3.30566 3.55034 1.47754 1.33549C1.16113 1.86284 0.985352 2.49565 0.985352 3.19878C0.985352 4.4644 1.61816 5.5894 2.6377 6.25737C2.04004 6.22221 1.44238 6.08159 0.950195 5.80034V5.83549C0.950195 7.62846 2.21582 9.10503 3.90332 9.45659C3.62207 9.5269 3.27051 9.59721 2.9541 9.59721C2.70801 9.59721 2.49707 9.56206 2.25098 9.5269C2.70801 11.0035 4.0791 12.0582 5.69629 12.0933C4.43066 13.0777 2.84863 13.6753 1.12598 13.6753C0.80957 13.6753 0.52832 13.6402 0.24707 13.605C1.86426 14.6597 3.79785 15.2574 5.90723 15.2574C12.6924 15.2574 16.3838 9.66753 16.3838 4.78081C16.3838 4.60503 16.3838 4.4644 16.3838 4.28862Z" fill="white"/>
</svg>
