<svg width="14" height="15" viewBox="0 0 14 15" fill="none" xmlns="http://www.w3.org/2000/svg">
<path d="M6.78125 3.59375C5.33203 3.59375 4.15625 4.76953 4.15625 6.21875C4.15625 7.66797 5.33203 8.84375 6.78125 8.84375C8.23047 8.84375 9.40625 7.66797 9.40625 6.21875C9.40625 4.76953 8.23047 3.59375 6.78125 3.59375ZM6.78125 7.53125C6.04297 7.53125 5.46875 6.95703 5.46875 6.21875C5.46875 5.50781 6.04297 4.90625 6.78125 4.90625C7.49219 4.90625 8.09375 5.50781 8.09375 6.21875C8.09375 6.95703 7.49219 7.53125 6.78125 7.53125ZM6.78125 0.96875C3.03516 0.96875 0 4.00391 0 7.75C0 11.4961 3.03516 14.5312 6.78125 14.5312C10.5273 14.5312 13.5625 11.4961 13.5625 7.75C13.5625 4.00391 10.5273 0.96875 6.78125 0.96875ZM6.78125 13.2188C5.41406 13.2188 4.15625 12.7266 3.19922 11.9062C3.60938 11.2773 4.32031 10.8398 5.11328 10.8398C5.6875 11.0039 6.23438 11.0859 6.78125 11.0859C7.30078 11.0859 7.84766 11.0039 8.42188 10.8398C9.21484 10.8672 9.92578 11.2773 10.3359 11.9062C9.37891 12.7266 8.12109 13.2188 6.78125 13.2188ZM11.2109 10.9219C10.5547 10.0742 9.51562 9.5 8.33984 9.5C8.06641 9.5 7.62891 9.77344 6.78125 9.77344C5.90625 9.77344 5.46875 9.5 5.19531 9.5C4.01953 9.5 2.98047 10.0742 2.32422 10.9219C1.66797 10.0469 1.3125 8.95312 1.3125 7.75C1.3125 4.74219 3.74609 2.28125 6.78125 2.28125C9.78906 2.28125 12.25 4.74219 12.25 7.75C12.25 8.95312 11.8672 10.0469 11.2109 10.9219Z" fill="white" fill-opacity="0.8"/>
</svg>
